{
    "asset" : {
        "generator" : "Khronos glTF Blender I/O v1.3.48",
        "version" : "2.0"
    },
    "scene" : 0,
    "scenes" : [
        {
            "name" : "Scene",
            "nodes" : [
                0,
                1,
                2
            ]
        }
    ],
    "nodes" : [
        {
            "name" : "Light",
            "rotation" : [
                0.16907575726509094,
                0.7558803558349609,
                -0.27217137813568115,
                0.570947527885437
            ],
            "translation" : [
                4.076245307922363,
                5.903861999511719,
                -1.0054539442062378
            ]
        },
        {
            "name" : "Camera",
            "rotation" : [
                0.483536034822464,
                0.33687159419059753,
                -0.20870360732078552,
                0.7804827094078064
            ],
            "translation" : [
                7.358891487121582,
                4.958309173583984,
                6.925790786743164
            ]
        },
        {
            "mesh" : 0,
            "name" : "Curve.006",
            "rotation" : [
                0.7069917321205139,
                0,
                0,
                0.7072218060493469
            ],
            "scale" : [
                12.830445289611816,
                12.830445289611816,
                12.830445289611816
            ],
            "translation" : [
                -0.0345463752746582,
                0.07033286988735199,
                -0.3089919686317444
            ]
        }
    ],
    "materials" : [
        {
            "doubleSided" : true,
            "name" : "SVGMat.001",
            "pbrMetallicRoughness" : {}
        }
    ],
    "meshes" : [
        {
            "name" : "Curve.006",
            "primitives" : [
                {
                    "attributes" : {
                        "POSITION" : 0,
                        "NORMAL" : 1,
                        "TEXCOORD_0" : 2
                    },
                    "indices" : 3,
                    "material" : 0
                }
            ]
        }
    ],
    "accessors" : [
        {
            "bufferView" : 0,
            "componentType" : 5126,
            "count" : 74705,
            "max" : [
                0.09782249480485916,
                0.007999999448657036,
                0.0356459841132164
            ],
            "min" : [
                -0.07636209577322006,
                -0.007999999448657036,
                -0.03454612195491791
            ],
            "type" : "VEC3"
        },
        {
            "bufferView" : 1,
            "componentType" : 5126,
            "count" : 74705,
            "type" : "VEC3"
        },
        {
            "bufferView" : 2,
            "componentType" : 5126,
            "count" : 74705,
            "type" : "VEC2"
        },
        {
            "bufferView" : 3,
            "componentType" : 5125,
            "count" : 324996,
            "type" : "SCALAR"
        }
    ],
    "bufferViews" : [
        {
            "buffer" : 0,
            "byteLength" : 896460,
            "byteOffset" : 0
        },
        {
            "buffer" : 0,
            "byteLength" : 896460,
            "byteOffset" : 896460
        },
        {
            "buffer" : 0,
            "byteLength" : 597640,
            "byteOffset" : 1792920
        },
        {
            "buffer" : 0,
            "byteLength" : 1299984,
            "byteOffset" : 2390560
        }
    ],
    "buffers" : [
        {
            "byteLength" : 3690544,
            "uri" : "astitled.bin"
        }
    ]
}
